<svg xmlns="http://www.w3.org/2000/svg" width="265" height="264" fill="none" viewBox="0 0 265 264"><path fill="url(#paint0_linear_122_159)" d="M181.481 78.846C195.781 92.036 204.751 110.926 204.751 131.926C204.751 143.146 202.191 153.776 197.621 163.256C225.571 129.696 228.931 80.366 202.731 42.826C171.321 -2.18402 109.381 -13.214 64.3614 18.196C46.7814 30.466 34.3814 47.406 27.6714 66.166C31.3814 62.666 35.3714 59.386 39.6914 56.376C85.4914 24.406 148.111 34.646 181.481 78.846Z"/><path fill="url(#paint1_linear_122_159)" d="M79.4714 82.9855C92.6614 68.6855 111.551 59.7155 132.551 59.7155C143.781 59.7155 154.411 62.2755 163.881 66.8455C130.321 38.8955 80.9914 35.5355 43.4514 61.7355C-1.55858 93.1455 -12.5885 155.086 18.8215 200.106C31.0915 217.686 48.0314 230.086 66.7915 236.786C63.2915 233.076 60.0115 229.085 57.0015 224.775C25.0315 178.975 35.2714 116.356 79.4714 82.9855Z"/><path fill="url(#paint2_linear_122_159)" d="M83.6115 185.006C69.3115 171.816 60.3415 152.926 60.3415 131.926C60.3415 120.706 62.9115 110.076 67.4715 100.596C39.5215 134.156 36.1615 183.486 62.3615 221.026C93.7715 266.036 155.721 277.066 200.731 245.656C218.311 233.386 230.711 216.446 237.411 197.686C233.701 201.186 229.711 204.466 225.401 207.476C179.601 239.436 116.981 229.196 83.6115 185.006Z"/><path fill="url(#paint3_linear_122_159)" d="M185.621 180.856C172.431 195.156 153.541 204.126 132.541 204.126C121.321 204.126 110.691 201.566 101.211 196.996C134.771 224.956 184.101 228.306 221.641 202.106C266.651 170.696 277.681 108.756 246.271 63.7357C234.001 46.1557 217.061 33.7557 198.301 27.0557C201.801 30.7657 205.081 34.7557 208.091 39.0657C240.061 84.8757 229.821 147.486 185.621 180.856Z"/><path fill="url(#paint4_linear_122_159)" d="M173.671 39.8558C146.091 -8.48421 78.9814 9.72576 64.8414 19.3258C47.1014 31.3658 34.3814 47.3958 27.6714 66.1558C31.3814 62.6558 35.3714 59.3757 39.6914 56.3657C85.4914 24.4057 148.101 34.6458 181.481 78.8458C182.611 79.8858 184.761 82.0958 184.761 82.0958C184.761 82.0958 186.451 62.2458 173.671 39.8558Z"/><path fill="url(#paint5_linear_122_159)" d="M40.4815 90.7956C-7.85847 118.376 10.3515 185.486 19.9515 199.626C31.9915 217.366 48.0215 230.086 66.7815 236.796C63.2815 233.086 60.0015 229.096 56.9915 224.786C25.0315 178.986 35.2715 116.376 79.4715 82.9956C80.5115 81.8656 82.7215 79.7156 82.7215 79.7156C82.7215 79.7156 62.8715 78.0256 40.4815 90.7956Z"/><path fill="url(#paint6_linear_122_159)" d="M91.4215 223.996C119.002 272.336 186.112 254.126 200.242 244.526C217.982 232.486 230.702 216.456 237.412 197.696C233.702 201.196 229.712 204.476 225.402 207.486C179.602 239.446 116.992 229.206 83.6115 185.006C82.4815 183.966 80.3315 181.756 80.3315 181.756C80.3315 181.756 78.6415 201.606 91.4215 223.996Z"/><path fill="url(#paint7_linear_122_159)" d="M224.612 173.046C272.952 145.466 254.742 78.3559 245.142 64.2159C233.092 46.4759 217.062 33.7559 198.312 27.0459C201.812 30.7559 205.092 34.7458 208.102 39.0558C240.062 84.8558 229.822 147.466 185.622 180.846C184.582 181.976 182.372 184.126 182.372 184.126C182.372 184.126 202.222 185.826 224.612 173.046Z"/><path fill="url(#paint8_linear_122_159)" d="M173.671 39.8564C149.771 -2.0436 96.1813 6.04637 73.1213 15.1964C97.0313 6.34637 148.641 -0.383633 171.971 40.5064C182.161 58.3664 183.151 74.6064 183.131 80.4364C183.991 81.2964 184.761 82.0864 184.761 82.0864C184.761 82.0864 186.451 62.2464 173.671 39.8564Z"/><path fill="url(#paint9_linear_122_159)" d="M40.4814 90.7967C-1.41864 114.697 6.67139 168.287 15.8214 191.347C6.97139 167.437 0.24139 115.827 41.1314 92.4967C58.9914 82.3067 75.2314 81.3167 81.0714 81.3367C81.9314 80.4767 82.7214 79.7067 82.7214 79.7067C82.7214 79.7067 62.8714 78.0267 40.4814 90.7967Z"/><path fill="url(#paint10_linear_122_159)" d="M91.4213 223.997C115.321 265.897 168.911 257.807 191.971 248.657C168.061 257.507 116.451 264.237 93.1213 223.347C82.9313 205.487 81.9413 189.247 81.9613 183.407C81.1013 182.547 80.3313 181.757 80.3313 181.757C80.3313 181.757 78.6413 201.607 91.4213 223.997Z"/><path fill="url(#paint11_linear_122_159)" d="M224.611 173.046C266.511 149.146 258.421 95.5561 249.271 72.4961C258.121 96.4061 264.851 148.016 223.961 171.346C206.101 181.536 189.861 182.526 184.021 182.506C183.161 183.366 182.371 184.136 182.371 184.136C182.371 184.136 202.221 185.826 224.611 173.046Z"/><path fill="#00D7FF" d="M205.052 131.926C205.052 171.966 172.582 204.426 132.552 204.426C92.5115 204.426 60.0515 171.966 60.0515 131.926C60.0515 91.8858 92.5115 59.4258 132.552 59.4258C172.582 59.4258 205.052 91.8758 205.052 131.926Z"/><path fill="url(#paint12_linear_122_159)" d="M107.542 85.8458C104.352 86.6658 101.532 88.0058 99.1715 89.8358C96.7015 91.7458 94.7815 94.2158 93.4615 97.1658C92.1915 100.016 91.5415 103.406 91.5415 107.266V117.536C91.5415 119.316 91.2715 121.606 90.0115 122.416C88.1915 123.576 85.4615 124.306 81.8915 124.606L77.5415 124.966V129.336V134.446V138.866L81.9515 139.176C85.4015 139.416 88.0815 140.146 89.9215 141.326C91.0015 142.016 91.5415 143.676 91.5415 146.256V156.496C91.5415 160.416 92.1815 163.856 93.4515 166.726C94.7715 169.736 96.7115 172.226 99.2115 174.116C101.571 175.906 104.382 177.216 107.572 178.016C110.522 178.756 113.812 179.126 117.352 179.126H122.091V174.386V169.566V165.116L117.651 164.836C116.021 164.736 114.352 164.486 112.692 164.116C111.692 163.886 110.921 163.466 110.261 162.766C110.191 162.696 109.602 161.996 109.602 159.516V150.216C109.602 145.066 108.772 141.066 107.052 137.986C105.622 135.426 103.721 133.386 101.401 131.876C103.721 130.366 105.622 128.316 107.052 125.746C108.762 122.656 109.602 118.686 109.602 113.606V104.236C109.602 102.236 110.002 101.286 110.242 101.036C110.892 100.356 111.651 99.9358 112.651 99.7258C114.321 99.3558 116.001 99.1258 117.641 99.0158L122.081 98.7358V94.2858V89.4658V84.7258H117.341C113.771 84.7158 110.482 85.0958 107.542 85.8458Z"/><path fill="url(#paint13_linear_122_159)" d="M183.211 124.596C179.661 124.306 176.932 123.566 175.102 122.406C173.822 121.596 173.562 119.306 173.562 117.526V107.256C173.562 103.396 172.911 99.9961 171.641 97.1561C170.321 94.2061 168.402 91.736 165.932 89.826C163.572 87.996 160.752 86.6561 157.562 85.8361C154.612 85.0861 151.321 84.7061 147.771 84.7061H143.031V89.446V94.2661V98.7161L147.471 98.996C149.111 99.096 150.802 99.3361 152.492 99.7061C153.482 99.9261 154.242 100.336 154.882 100.996C155.112 101.246 155.511 102.196 155.511 104.216V113.586C155.511 118.666 156.342 122.636 158.062 125.726C159.492 128.306 161.391 130.346 163.721 131.856C161.391 133.356 159.492 135.396 158.062 137.966C156.342 141.046 155.511 145.046 155.511 150.196V159.496C155.511 161.996 154.922 162.696 154.852 162.776C154.212 163.456 153.451 163.876 152.451 164.106C150.781 164.476 149.101 164.726 147.471 164.826L143.031 165.106V169.556V174.376V179.116H147.771C151.311 179.116 154.602 178.746 157.542 178.006C160.732 177.206 163.541 175.896 165.901 174.106C168.401 172.206 170.341 169.716 171.661 166.706C172.921 163.836 173.572 160.396 173.572 156.476V146.236C173.572 143.656 174.112 141.996 175.192 141.306C177.022 140.116 179.711 139.396 183.161 139.156L187.572 138.846V134.426V129.316V124.946L183.211 124.596Z"/><defs><linearGradient id="paint0_linear_122_159" x1="46.526" x2="134.296" y1="1.77" y2="64.65" gradientUnits="userSpaceOnUse"><stop offset=".354" stop-color="#fff" stop-opacity="0"/><stop offset=".409" stop-color="#F6FEFF" stop-opacity=".085"/><stop offset=".498" stop-color="#DEFAFF" stop-opacity=".224"/><stop offset=".611" stop-color="#B6F4FF" stop-opacity=".399"/><stop offset=".744" stop-color="#7FEBFF" stop-opacity=".603"/><stop offset=".89" stop-color="#39E0FF" stop-opacity=".83"/><stop offset="1" stop-color="#00D7FF"/></linearGradient><linearGradient id="paint1_linear_122_159" x1="2.393" x2="65.272" y1="217.942" y2="130.173" gradientUnits="userSpaceOnUse"><stop offset=".354" stop-color="#fff" stop-opacity="0"/><stop offset=".409" stop-color="#F6FEFF" stop-opacity=".085"/><stop offset=".498" stop-color="#DEFAFF" stop-opacity=".224"/><stop offset=".611" stop-color="#B6F4FF" stop-opacity=".399"/><stop offset=".744" stop-color="#7FEBFF" stop-opacity=".603"/><stop offset=".89" stop-color="#39E0FF" stop-opacity=".83"/><stop offset="1" stop-color="#00D7FF"/></linearGradient><linearGradient id="paint2_linear_122_159" x1="218.565" x2="130.795" y1="262.076" y2="199.196" gradientUnits="userSpaceOnUse"><stop offset=".354" stop-color="#fff" stop-opacity="0"/><stop offset=".409" stop-color="#F6FEFF" stop-opacity=".085"/><stop offset=".498" stop-color="#DEFAFF" stop-opacity=".224"/><stop offset=".611" stop-color="#B6F4FF" stop-opacity=".399"/><stop offset=".744" stop-color="#7FEBFF" stop-opacity=".603"/><stop offset=".89" stop-color="#39E0FF" stop-opacity=".83"/><stop offset="1" stop-color="#00D7FF"/></linearGradient><linearGradient id="paint3_linear_122_159" x1="262.699" x2="199.819" y1="45.904" y2="133.673" gradientUnits="userSpaceOnUse"><stop offset=".354" stop-color="#fff" stop-opacity="0"/><stop offset=".409" stop-color="#F6FEFF" stop-opacity=".085"/><stop offset=".498" stop-color="#DEFAFF" stop-opacity=".224"/><stop offset=".611" stop-color="#B6F4FF" stop-opacity=".399"/><stop offset=".744" stop-color="#7FEBFF" stop-opacity=".603"/><stop offset=".89" stop-color="#39E0FF" stop-opacity=".83"/><stop offset="1" stop-color="#00D7FF"/></linearGradient><linearGradient id="paint4_linear_122_159" x1="60.274" x2="170.838" y1="25.24" y2="87.334" gradientUnits="userSpaceOnUse"><stop offset=".006" stop-color="#fff" stop-opacity="0"/><stop offset=".051" stop-color="#F7FEFF" stop-opacity=".043"/><stop offset=".119" stop-color="#E2FBFF" stop-opacity=".109"/><stop offset=".203" stop-color="#C0F5FF" stop-opacity=".188"/><stop offset=".297" stop-color="#91EEFF" stop-opacity=".279"/><stop offset=".402" stop-color="#53E4FF" stop-opacity=".379"/><stop offset=".513" stop-color="#0AD9FF" stop-opacity=".486"/><stop offset=".528" stop-color="#00D7FF" stop-opacity=".5"/><stop offset="1" stop-color="#0096FF"/></linearGradient><linearGradient id="paint5_linear_122_159" x1="25.862" x2="87.957" y1="204.194" y2="93.63" gradientUnits="userSpaceOnUse"><stop offset=".006" stop-color="#fff" stop-opacity="0"/><stop offset=".051" stop-color="#F7FEFF" stop-opacity=".043"/><stop offset=".119" stop-color="#E2FBFF" stop-opacity=".109"/><stop offset=".203" stop-color="#C0F5FF" stop-opacity=".188"/><stop offset=".297" stop-color="#91EEFF" stop-opacity=".279"/><stop offset=".402" stop-color="#53E4FF" stop-opacity=".379"/><stop offset=".513" stop-color="#0AD9FF" stop-opacity=".486"/><stop offset=".528" stop-color="#00D7FF" stop-opacity=".5"/><stop offset="1" stop-color="#0096FF"/></linearGradient><linearGradient id="paint6_linear_122_159" x1="204.817" x2="94.252" y1="238.606" y2="176.512" gradientUnits="userSpaceOnUse"><stop offset=".006" stop-color="#fff" stop-opacity="0"/><stop offset=".051" stop-color="#F7FEFF" stop-opacity=".043"/><stop offset=".119" stop-color="#E2FBFF" stop-opacity=".109"/><stop offset=".203" stop-color="#C0F5FF" stop-opacity=".188"/><stop offset=".297" stop-color="#91EEFF" stop-opacity=".279"/><stop offset=".402" stop-color="#53E4FF" stop-opacity=".379"/><stop offset=".513" stop-color="#0AD9FF" stop-opacity=".486"/><stop offset=".528" stop-color="#00D7FF" stop-opacity=".5"/><stop offset="1" stop-color="#0096FF"/></linearGradient><linearGradient id="paint7_linear_122_159" x1="239.229" x2="177.135" y1="59.652" y2="170.216" gradientUnits="userSpaceOnUse"><stop offset=".006" stop-color="#fff" stop-opacity="0"/><stop offset=".051" stop-color="#F7FEFF" stop-opacity=".043"/><stop offset=".119" stop-color="#E2FBFF" stop-opacity=".109"/><stop offset=".203" stop-color="#C0F5FF" stop-opacity=".188"/><stop offset=".297" stop-color="#91EEFF" stop-opacity=".279"/><stop offset=".402" stop-color="#53E4FF" stop-opacity=".379"/><stop offset=".513" stop-color="#0AD9FF" stop-opacity=".486"/><stop offset=".528" stop-color="#00D7FF" stop-opacity=".5"/><stop offset="1" stop-color="#0096FF"/></linearGradient><linearGradient id="paint8_linear_122_159" x1="148.483" x2="219.417" y1="40.442" y2="73.257" gradientUnits="userSpaceOnUse"><stop offset=".006" stop-color="#fff" stop-opacity=".2"/><stop offset=".28" stop-color="#B5FFFF" stop-opacity=".611"/><stop offset=".539" stop-color="#72FFFF"/></linearGradient><linearGradient id="paint9_linear_122_159" x1="41.064" x2="73.879" y1="115.987" y2="45.052" gradientUnits="userSpaceOnUse"><stop offset=".006" stop-color="#fff" stop-opacity=".2"/><stop offset=".28" stop-color="#B5FFFF" stop-opacity=".611"/><stop offset=".539" stop-color="#72FFFF"/></linearGradient><linearGradient id="paint10_linear_122_159" x1="116.608" x2="45.672" y1="223.405" y2="190.59" gradientUnits="userSpaceOnUse"><stop offset=".006" stop-color="#fff" stop-opacity=".2"/><stop offset=".28" stop-color="#B5FFFF" stop-opacity=".611"/><stop offset=".539" stop-color="#72FFFF"/></linearGradient><linearGradient id="paint11_linear_122_159" x1="224.027" x2="191.211" y1="147.86" y2="218.796" gradientUnits="userSpaceOnUse"><stop offset=".006" stop-color="#fff" stop-opacity=".2"/><stop offset=".28" stop-color="#B5FFFF" stop-opacity=".611"/><stop offset=".539" stop-color="#72FFFF"/></linearGradient><linearGradient id="paint12_linear_122_159" x1="99.8" x2="99.8" y1="109.368" y2="189.931" gradientUnits="userSpaceOnUse"><stop offset=".27" stop-color="#fff"/><stop offset=".355" stop-color="#F9FFFF"/><stop offset=".474" stop-color="#E6FFFF"/><stop offset=".613" stop-color="#C9FFFF"/><stop offset=".765" stop-color="#A0FFFF"/><stop offset=".91" stop-color="#72FFFF"/></linearGradient><linearGradient id="paint13_linear_122_159" x1="165.291" x2="165.291" y1="109.368" y2="189.931" gradientUnits="userSpaceOnUse"><stop offset=".27" stop-color="#fff"/><stop offset=".355" stop-color="#F9FFFF"/><stop offset=".474" stop-color="#E6FFFF"/><stop offset=".613" stop-color="#C9FFFF"/><stop offset=".765" stop-color="#A0FFFF"/><stop offset=".91" stop-color="#72FFFF"/></linearGradient></defs></svg>